# xmcd
#
# Track frame offsets:
#	150
#	13734
#	30948
#	49909
#	63582
#	80687
#	100277
#	122421
#	142877
#	161273
#	175690
#	195089
#	212343
#	226600
#
# Disc length: 3166 seconds
#
# Revision: 1
# Processed by: cddbd v1.5.2PL0 Copyright (c) Steve Scherf et al.
# Submitted via: audiograbber 1.83.01
#
DISCID=9f0c5c0e
DTITLE=Felicity - Nothing To Hide
DYEAR=1999
DGENRE=Country
TTITLE0=Amazing
TTITLE1=Counting Back The Days
TTITLE2=Country Girl (In The Urban World)
TTITLE3=Sugar Town
TTITLE4=We'll Never Get Along
TTITLE5=Sugarloaf Hill
TTITLE6=Till The Rivers All Run Dry
TTITLE7=That's What I Call Love
TTITLE8=If You Were My Baby (with Rick Price)
TTITLE9=Summerfly
TTITLE10=I Wanna Be The Girl
TTITLE11=Tropical Fever
TTITLE12=Goodbye
TTITLE13=Sugar Town (Pop Mix)
EXTD=ID3G: 2
EXTT0=
EXTT1=
EXTT2=
EXTT3=
EXTT4=
EXTT5=
EXTT6=
EXTT7=
EXTT8=
EXTT9=
EXTT10=
EXTT11=
EXTT12=
EXTT13=
PLAYORDER=
